<mxfile host="app.diagrams.net" modified="2023-01-01T06:21:36.129Z" agent="5.0 (Macintosh; Intel Mac OS X 10_14_6) AppleWebKit/537.36 (KHTML, like Gecko) Chrome/108.0.0.0 Safari/537.36" version="20.7.4" etag="VovE0jESfDxkN__hbruD" type="github">
  <diagram id="3Msq9Zm3J8-9wI-yKWcB" name="第 1 页">
    <mxGraphModel dx="1468" dy="1994" grid="1" gridSize="10" guides="1" tooltips="1" connect="1" arrows="1" fold="1" page="1" pageScale="1" pageWidth="827" pageHeight="1169" math="0" shadow="0">
      <root>
        <mxCell id="0" />
        <mxCell id="1" parent="0" />
        <mxCell id="XPZotyxkkyArRhtsx3Gz-83" value="" style="rounded=1;whiteSpace=wrap;html=1;strokeWidth=2;fillWeight=4;hachureGap=8;hachureAngle=45;fillColor=#f5f5f5;fontSize=15;fontColor=#333333;strokeColor=#666666;" vertex="1" parent="1">
          <mxGeometry x="40" y="200" width="1280" height="350" as="geometry" />
        </mxCell>
        <mxCell id="XPZotyxkkyArRhtsx3Gz-2" value="" style="rounded=1;whiteSpace=wrap;html=1;strokeWidth=2;fillWeight=4;hachureGap=8;hachureAngle=45;fillColor=#f5f5f5;fontSize=15;fontColor=#333333;strokeColor=#666666;" vertex="1" parent="1">
          <mxGeometry x="40" y="-40" width="1280" height="200" as="geometry" />
        </mxCell>
        <mxCell id="XPZotyxkkyArRhtsx3Gz-3" value="" style="rounded=1;whiteSpace=wrap;html=1;strokeWidth=2;fillWeight=4;hachureGap=8;hachureAngle=45;fillColor=#dae8fc;strokeColor=#6c8ebf;" vertex="1" parent="1">
          <mxGeometry x="80" y="40" width="80" height="80" as="geometry" />
        </mxCell>
        <mxCell id="XPZotyxkkyArRhtsx3Gz-4" value="" style="rounded=1;whiteSpace=wrap;html=1;strokeWidth=2;fillWeight=4;hachureGap=8;hachureAngle=45;fillColor=#dae8fc;strokeColor=#6c8ebf;" vertex="1" parent="1">
          <mxGeometry x="240" y="40" width="80" height="80" as="geometry" />
        </mxCell>
        <mxCell id="XPZotyxkkyArRhtsx3Gz-5" value="" style="rounded=1;whiteSpace=wrap;html=1;strokeWidth=2;fillWeight=4;hachureGap=8;hachureAngle=45;fillColor=#dae8fc;strokeColor=#6c8ebf;" vertex="1" parent="1">
          <mxGeometry x="400" y="40" width="80" height="80" as="geometry" />
        </mxCell>
        <mxCell id="XPZotyxkkyArRhtsx3Gz-47" value="" style="rounded=1;whiteSpace=wrap;html=1;strokeWidth=2;fillWeight=4;hachureGap=8;hachureAngle=45;fillColor=#dae8fc;strokeColor=#6c8ebf;" vertex="1" parent="1">
          <mxGeometry x="560" y="40" width="80" height="80" as="geometry" />
        </mxCell>
        <mxCell id="XPZotyxkkyArRhtsx3Gz-48" value="" style="rounded=1;whiteSpace=wrap;html=1;strokeWidth=2;fillWeight=4;hachureGap=8;hachureAngle=45;fillColor=#dae8fc;strokeColor=#6c8ebf;" vertex="1" parent="1">
          <mxGeometry x="720" y="40" width="80" height="80" as="geometry" />
        </mxCell>
        <mxCell id="XPZotyxkkyArRhtsx3Gz-49" value="" style="rounded=1;whiteSpace=wrap;html=1;strokeWidth=2;fillWeight=4;hachureGap=8;hachureAngle=45;fillColor=#dae8fc;strokeColor=#6c8ebf;" vertex="1" parent="1">
          <mxGeometry x="880" y="40" width="80" height="80" as="geometry" />
        </mxCell>
        <mxCell id="XPZotyxkkyArRhtsx3Gz-50" value="" style="rounded=1;whiteSpace=wrap;html=1;strokeWidth=2;fillWeight=4;hachureGap=8;hachureAngle=45;fillColor=#dae8fc;strokeColor=#6c8ebf;" vertex="1" parent="1">
          <mxGeometry x="1040" y="40" width="80" height="80" as="geometry" />
        </mxCell>
        <mxCell id="XPZotyxkkyArRhtsx3Gz-51" value="" style="rounded=1;whiteSpace=wrap;html=1;strokeWidth=2;fillWeight=4;hachureGap=8;hachureAngle=45;fillColor=#dae8fc;strokeColor=#6c8ebf;" vertex="1" parent="1">
          <mxGeometry x="1200" y="40" width="80" height="80" as="geometry" />
        </mxCell>
        <mxCell id="XPZotyxkkyArRhtsx3Gz-53" value="" style="endArrow=classic;startArrow=classic;html=1;rounded=0;sketch=1;strokeWidth=2;fontSize=15;entryX=0;entryY=0.5;entryDx=0;entryDy=0;exitX=1;exitY=0.5;exitDx=0;exitDy=0;" edge="1" parent="1" source="XPZotyxkkyArRhtsx3Gz-4" target="XPZotyxkkyArRhtsx3Gz-5">
          <mxGeometry width="50" height="50" relative="1" as="geometry">
            <mxPoint x="170" y="90.00000000000023" as="sourcePoint" />
            <mxPoint x="250" y="90.00000000000023" as="targetPoint" />
          </mxGeometry>
        </mxCell>
        <mxCell id="XPZotyxkkyArRhtsx3Gz-54" value="" style="endArrow=classic;startArrow=classic;html=1;rounded=0;sketch=1;strokeWidth=2;fontSize=15;entryX=0;entryY=0.5;entryDx=0;entryDy=0;exitX=1;exitY=0.5;exitDx=0;exitDy=0;" edge="1" parent="1" source="XPZotyxkkyArRhtsx3Gz-5" target="XPZotyxkkyArRhtsx3Gz-47">
          <mxGeometry width="50" height="50" relative="1" as="geometry">
            <mxPoint x="330" y="90.00000000000023" as="sourcePoint" />
            <mxPoint x="410" y="90.00000000000023" as="targetPoint" />
          </mxGeometry>
        </mxCell>
        <mxCell id="XPZotyxkkyArRhtsx3Gz-55" value="" style="endArrow=classic;startArrow=classic;html=1;rounded=0;sketch=1;strokeWidth=2;fontSize=15;entryX=0;entryY=0.5;entryDx=0;entryDy=0;exitX=1;exitY=0.5;exitDx=0;exitDy=0;" edge="1" parent="1" source="XPZotyxkkyArRhtsx3Gz-47" target="XPZotyxkkyArRhtsx3Gz-48">
          <mxGeometry width="50" height="50" relative="1" as="geometry">
            <mxPoint x="490" y="90.00000000000023" as="sourcePoint" />
            <mxPoint x="570" y="90.00000000000023" as="targetPoint" />
          </mxGeometry>
        </mxCell>
        <mxCell id="XPZotyxkkyArRhtsx3Gz-56" value="" style="endArrow=classic;startArrow=classic;html=1;rounded=0;sketch=1;strokeWidth=2;fontSize=15;entryX=0;entryY=0.5;entryDx=0;entryDy=0;exitX=1;exitY=0.5;exitDx=0;exitDy=0;" edge="1" parent="1" source="XPZotyxkkyArRhtsx3Gz-48" target="XPZotyxkkyArRhtsx3Gz-49">
          <mxGeometry width="50" height="50" relative="1" as="geometry">
            <mxPoint x="810" y="80" as="sourcePoint" />
            <mxPoint x="730" y="90.00000000000023" as="targetPoint" />
          </mxGeometry>
        </mxCell>
        <mxCell id="XPZotyxkkyArRhtsx3Gz-57" value="" style="endArrow=classic;startArrow=classic;html=1;rounded=0;sketch=1;strokeWidth=2;fontSize=15;entryX=0;entryY=0.5;entryDx=0;entryDy=0;exitX=1;exitY=0.5;exitDx=0;exitDy=0;" edge="1" parent="1" source="XPZotyxkkyArRhtsx3Gz-49" target="XPZotyxkkyArRhtsx3Gz-50">
          <mxGeometry width="50" height="50" relative="1" as="geometry">
            <mxPoint x="810" y="90.00000000000023" as="sourcePoint" />
            <mxPoint x="890" y="90.00000000000023" as="targetPoint" />
          </mxGeometry>
        </mxCell>
        <mxCell id="XPZotyxkkyArRhtsx3Gz-58" value="" style="endArrow=classic;startArrow=classic;html=1;rounded=0;sketch=1;strokeWidth=2;fontSize=15;entryX=0;entryY=0.5;entryDx=0;entryDy=0;exitX=1;exitY=0.5;exitDx=0;exitDy=0;" edge="1" parent="1" source="XPZotyxkkyArRhtsx3Gz-50" target="XPZotyxkkyArRhtsx3Gz-51">
          <mxGeometry width="50" height="50" relative="1" as="geometry">
            <mxPoint x="970" y="90.00000000000023" as="sourcePoint" />
            <mxPoint x="1050" y="90.00000000000023" as="targetPoint" />
          </mxGeometry>
        </mxCell>
        <mxCell id="XPZotyxkkyArRhtsx3Gz-59" value="" style="rounded=1;whiteSpace=wrap;html=1;strokeWidth=2;fillWeight=4;hachureGap=8;hachureAngle=45;fillColor=#dae8fc;strokeColor=#6c8ebf;" vertex="1" parent="1">
          <mxGeometry x="80" y="440" width="80" height="80" as="geometry" />
        </mxCell>
        <mxCell id="XPZotyxkkyArRhtsx3Gz-60" value="" style="rounded=1;whiteSpace=wrap;html=1;strokeWidth=2;fillWeight=4;hachureGap=8;hachureAngle=45;fillColor=#dae8fc;strokeColor=#6c8ebf;" vertex="1" parent="1">
          <mxGeometry x="240" y="440" width="80" height="80" as="geometry" />
        </mxCell>
        <mxCell id="XPZotyxkkyArRhtsx3Gz-61" value="" style="rounded=1;whiteSpace=wrap;html=1;strokeWidth=2;fillWeight=4;hachureGap=8;hachureAngle=45;fillColor=#dae8fc;strokeColor=#6c8ebf;" vertex="1" parent="1">
          <mxGeometry x="400" y="440" width="80" height="80" as="geometry" />
        </mxCell>
        <mxCell id="XPZotyxkkyArRhtsx3Gz-62" value="" style="rounded=1;whiteSpace=wrap;html=1;strokeWidth=2;fillWeight=4;hachureGap=8;hachureAngle=45;fillColor=#dae8fc;strokeColor=#6c8ebf;" vertex="1" parent="1">
          <mxGeometry x="560" y="440" width="80" height="80" as="geometry" />
        </mxCell>
        <mxCell id="XPZotyxkkyArRhtsx3Gz-63" value="" style="rounded=1;whiteSpace=wrap;html=1;strokeWidth=2;fillWeight=4;hachureGap=8;hachureAngle=45;fillColor=#dae8fc;strokeColor=#6c8ebf;" vertex="1" parent="1">
          <mxGeometry x="720" y="440" width="80" height="80" as="geometry" />
        </mxCell>
        <mxCell id="XPZotyxkkyArRhtsx3Gz-64" value="" style="rounded=1;whiteSpace=wrap;html=1;strokeWidth=2;fillWeight=4;hachureGap=8;hachureAngle=45;fillColor=#dae8fc;strokeColor=#6c8ebf;" vertex="1" parent="1">
          <mxGeometry x="880" y="440" width="80" height="80" as="geometry" />
        </mxCell>
        <mxCell id="XPZotyxkkyArRhtsx3Gz-65" value="" style="rounded=1;whiteSpace=wrap;html=1;strokeWidth=2;fillWeight=4;hachureGap=8;hachureAngle=45;fillColor=#dae8fc;strokeColor=#6c8ebf;" vertex="1" parent="1">
          <mxGeometry x="1040" y="440" width="80" height="80" as="geometry" />
        </mxCell>
        <mxCell id="XPZotyxkkyArRhtsx3Gz-66" value="" style="rounded=1;whiteSpace=wrap;html=1;strokeWidth=2;fillWeight=4;hachureGap=8;hachureAngle=45;fillColor=#dae8fc;strokeColor=#6c8ebf;" vertex="1" parent="1">
          <mxGeometry x="1200" y="440" width="80" height="80" as="geometry" />
        </mxCell>
        <mxCell id="XPZotyxkkyArRhtsx3Gz-67" value="" style="endArrow=classic;startArrow=classic;html=1;rounded=0;sketch=1;strokeWidth=2;fontSize=15;entryX=0;entryY=0.5;entryDx=0;entryDy=0;exitX=1;exitY=0.5;exitDx=0;exitDy=0;" edge="1" parent="1" source="XPZotyxkkyArRhtsx3Gz-59" target="XPZotyxkkyArRhtsx3Gz-60">
          <mxGeometry width="50" height="50" relative="1" as="geometry">
            <mxPoint x="240" y="610" as="sourcePoint" />
            <mxPoint x="290" y="560" as="targetPoint" />
          </mxGeometry>
        </mxCell>
        <mxCell id="XPZotyxkkyArRhtsx3Gz-68" value="" style="endArrow=classic;startArrow=classic;html=1;rounded=0;sketch=1;strokeWidth=2;fontSize=15;entryX=0;entryY=0.5;entryDx=0;entryDy=0;exitX=1;exitY=0.5;exitDx=0;exitDy=0;" edge="1" parent="1" source="XPZotyxkkyArRhtsx3Gz-60" target="XPZotyxkkyArRhtsx3Gz-61">
          <mxGeometry width="50" height="50" relative="1" as="geometry">
            <mxPoint x="170" y="490.0000000000002" as="sourcePoint" />
            <mxPoint x="250" y="490.0000000000002" as="targetPoint" />
          </mxGeometry>
        </mxCell>
        <mxCell id="XPZotyxkkyArRhtsx3Gz-69" value="" style="endArrow=classic;startArrow=classic;html=1;rounded=0;sketch=1;strokeWidth=2;fontSize=15;entryX=0;entryY=0.5;entryDx=0;entryDy=0;exitX=1;exitY=0.5;exitDx=0;exitDy=0;" edge="1" parent="1" source="XPZotyxkkyArRhtsx3Gz-61" target="XPZotyxkkyArRhtsx3Gz-62">
          <mxGeometry width="50" height="50" relative="1" as="geometry">
            <mxPoint x="330" y="490.0000000000002" as="sourcePoint" />
            <mxPoint x="410" y="490.0000000000002" as="targetPoint" />
          </mxGeometry>
        </mxCell>
        <mxCell id="XPZotyxkkyArRhtsx3Gz-70" value="" style="endArrow=classic;startArrow=classic;html=1;rounded=0;sketch=1;strokeWidth=2;fontSize=15;entryX=0;entryY=0.5;entryDx=0;entryDy=0;exitX=1;exitY=0.5;exitDx=0;exitDy=0;" edge="1" parent="1" source="XPZotyxkkyArRhtsx3Gz-62" target="XPZotyxkkyArRhtsx3Gz-63">
          <mxGeometry width="50" height="50" relative="1" as="geometry">
            <mxPoint x="490" y="490.0000000000002" as="sourcePoint" />
            <mxPoint x="570" y="490.0000000000002" as="targetPoint" />
          </mxGeometry>
        </mxCell>
        <mxCell id="XPZotyxkkyArRhtsx3Gz-71" value="" style="endArrow=classic;startArrow=classic;html=1;rounded=0;sketch=1;strokeWidth=2;fontSize=15;entryX=0;entryY=0.5;entryDx=0;entryDy=0;exitX=1;exitY=0.5;exitDx=0;exitDy=0;" edge="1" parent="1" source="XPZotyxkkyArRhtsx3Gz-63" target="XPZotyxkkyArRhtsx3Gz-64">
          <mxGeometry width="50" height="50" relative="1" as="geometry">
            <mxPoint x="810" y="480" as="sourcePoint" />
            <mxPoint x="730" y="490.0000000000002" as="targetPoint" />
          </mxGeometry>
        </mxCell>
        <mxCell id="XPZotyxkkyArRhtsx3Gz-72" value="" style="endArrow=classic;startArrow=classic;html=1;rounded=0;sketch=1;strokeWidth=2;fontSize=15;entryX=0;entryY=0.5;entryDx=0;entryDy=0;exitX=1;exitY=0.5;exitDx=0;exitDy=0;" edge="1" parent="1" source="XPZotyxkkyArRhtsx3Gz-64" target="XPZotyxkkyArRhtsx3Gz-65">
          <mxGeometry width="50" height="50" relative="1" as="geometry">
            <mxPoint x="810" y="490.0000000000002" as="sourcePoint" />
            <mxPoint x="890" y="490.0000000000002" as="targetPoint" />
          </mxGeometry>
        </mxCell>
        <mxCell id="XPZotyxkkyArRhtsx3Gz-73" value="" style="endArrow=classic;startArrow=classic;html=1;rounded=0;sketch=1;strokeWidth=2;fontSize=15;entryX=0;entryY=0.5;entryDx=0;entryDy=0;exitX=1;exitY=0.5;exitDx=0;exitDy=0;" edge="1" parent="1" source="XPZotyxkkyArRhtsx3Gz-65" target="XPZotyxkkyArRhtsx3Gz-66">
          <mxGeometry width="50" height="50" relative="1" as="geometry">
            <mxPoint x="970" y="490.0000000000002" as="sourcePoint" />
            <mxPoint x="1050" y="490.0000000000002" as="targetPoint" />
          </mxGeometry>
        </mxCell>
        <mxCell id="XPZotyxkkyArRhtsx3Gz-74" value="map[key]val" style="rounded=1;whiteSpace=wrap;html=1;strokeWidth=2;fillWeight=4;hachureGap=8;hachureAngle=45;fillColor=#d5e8d4;strokeColor=#82b366;fontSize=20;fontStyle=1" vertex="1" parent="1">
          <mxGeometry x="720" y="240" width="240" height="80" as="geometry" />
        </mxCell>
        <mxCell id="XPZotyxkkyArRhtsx3Gz-75" value="" style="endArrow=classic;html=1;rounded=0;sketch=1;strokeWidth=2;fontSize=20;exitX=0.5;exitY=1;exitDx=0;exitDy=0;entryX=0.5;entryY=0;entryDx=0;entryDy=0;fillColor=#d5e8d4;strokeColor=#82b366;" edge="1" parent="1" source="XPZotyxkkyArRhtsx3Gz-74" target="XPZotyxkkyArRhtsx3Gz-59">
          <mxGeometry width="50" height="50" relative="1" as="geometry">
            <mxPoint x="350" y="320" as="sourcePoint" />
            <mxPoint x="400" y="270" as="targetPoint" />
          </mxGeometry>
        </mxCell>
        <mxCell id="XPZotyxkkyArRhtsx3Gz-76" value="" style="endArrow=classic;html=1;rounded=0;sketch=1;strokeWidth=2;fontSize=20;exitX=0.5;exitY=1;exitDx=0;exitDy=0;entryX=0.5;entryY=0;entryDx=0;entryDy=0;fillColor=#d5e8d4;strokeColor=#82b366;" edge="1" parent="1" source="XPZotyxkkyArRhtsx3Gz-74" target="XPZotyxkkyArRhtsx3Gz-60">
          <mxGeometry width="50" height="50" relative="1" as="geometry">
            <mxPoint x="1010" y="330" as="sourcePoint" />
            <mxPoint x="130" y="450" as="targetPoint" />
          </mxGeometry>
        </mxCell>
        <mxCell id="XPZotyxkkyArRhtsx3Gz-77" value="" style="endArrow=classic;html=1;rounded=0;sketch=1;strokeWidth=2;fontSize=20;exitX=0.5;exitY=1;exitDx=0;exitDy=0;entryX=0.5;entryY=0;entryDx=0;entryDy=0;fillColor=#d5e8d4;strokeColor=#82b366;" edge="1" parent="1" source="XPZotyxkkyArRhtsx3Gz-74" target="XPZotyxkkyArRhtsx3Gz-61">
          <mxGeometry width="50" height="50" relative="1" as="geometry">
            <mxPoint x="1010" y="330" as="sourcePoint" />
            <mxPoint x="289.9999999999998" y="450" as="targetPoint" />
          </mxGeometry>
        </mxCell>
        <mxCell id="XPZotyxkkyArRhtsx3Gz-78" value="" style="endArrow=classic;html=1;rounded=0;sketch=1;strokeWidth=2;fontSize=20;exitX=0.5;exitY=1;exitDx=0;exitDy=0;entryX=0.5;entryY=0;entryDx=0;entryDy=0;fillColor=#d5e8d4;strokeColor=#82b366;" edge="1" parent="1" source="XPZotyxkkyArRhtsx3Gz-74" target="XPZotyxkkyArRhtsx3Gz-62">
          <mxGeometry width="50" height="50" relative="1" as="geometry">
            <mxPoint x="1010" y="330" as="sourcePoint" />
            <mxPoint x="450" y="450" as="targetPoint" />
          </mxGeometry>
        </mxCell>
        <mxCell id="XPZotyxkkyArRhtsx3Gz-79" value="" style="endArrow=classic;html=1;rounded=0;sketch=1;strokeWidth=2;fontSize=20;exitX=0.5;exitY=1;exitDx=0;exitDy=0;entryX=0.5;entryY=0;entryDx=0;entryDy=0;fillColor=#d5e8d4;strokeColor=#82b366;" edge="1" parent="1" source="XPZotyxkkyArRhtsx3Gz-74" target="XPZotyxkkyArRhtsx3Gz-63">
          <mxGeometry width="50" height="50" relative="1" as="geometry">
            <mxPoint x="1010" y="330" as="sourcePoint" />
            <mxPoint x="610" y="450" as="targetPoint" />
          </mxGeometry>
        </mxCell>
        <mxCell id="XPZotyxkkyArRhtsx3Gz-80" value="" style="endArrow=classic;html=1;rounded=0;sketch=1;strokeWidth=2;fontSize=20;exitX=0.5;exitY=1;exitDx=0;exitDy=0;entryX=0.5;entryY=0;entryDx=0;entryDy=0;fillColor=#d5e8d4;strokeColor=#82b366;" edge="1" parent="1" source="XPZotyxkkyArRhtsx3Gz-74" target="XPZotyxkkyArRhtsx3Gz-64">
          <mxGeometry width="50" height="50" relative="1" as="geometry">
            <mxPoint x="1010" y="330" as="sourcePoint" />
            <mxPoint x="770" y="450" as="targetPoint" />
          </mxGeometry>
        </mxCell>
        <mxCell id="XPZotyxkkyArRhtsx3Gz-81" value="" style="endArrow=classic;html=1;rounded=0;sketch=1;strokeWidth=2;fontSize=20;exitX=0.5;exitY=1;exitDx=0;exitDy=0;entryX=0.5;entryY=0;entryDx=0;entryDy=0;fillColor=#d5e8d4;strokeColor=#82b366;" edge="1" parent="1" source="XPZotyxkkyArRhtsx3Gz-74" target="XPZotyxkkyArRhtsx3Gz-65">
          <mxGeometry width="50" height="50" relative="1" as="geometry">
            <mxPoint x="1010" y="330" as="sourcePoint" />
            <mxPoint x="930" y="450" as="targetPoint" />
          </mxGeometry>
        </mxCell>
        <mxCell id="XPZotyxkkyArRhtsx3Gz-82" value="" style="endArrow=classic;html=1;rounded=0;sketch=1;strokeWidth=2;fontSize=20;exitX=0.5;exitY=1;exitDx=0;exitDy=0;entryX=0.5;entryY=0;entryDx=0;entryDy=0;fillColor=#d5e8d4;strokeColor=#82b366;" edge="1" parent="1" source="XPZotyxkkyArRhtsx3Gz-74" target="XPZotyxkkyArRhtsx3Gz-66">
          <mxGeometry width="50" height="50" relative="1" as="geometry">
            <mxPoint x="1010" y="330" as="sourcePoint" />
            <mxPoint x="1090" y="450" as="targetPoint" />
          </mxGeometry>
        </mxCell>
        <mxCell id="XPZotyxkkyArRhtsx3Gz-84" value="1" style="ellipse;whiteSpace=wrap;html=1;strokeWidth=2;fillWeight=2;hachureGap=8;fillColor=#fff2cc;fillStyle=auto;fontSize=15;strokeColor=#d6b656;fontStyle=1" vertex="1" parent="1">
          <mxGeometry x="1260" y="-20" width="40" height="40" as="geometry" />
        </mxCell>
        <mxCell id="XPZotyxkkyArRhtsx3Gz-85" value="2" style="ellipse;whiteSpace=wrap;html=1;strokeWidth=2;fillWeight=2;hachureGap=8;fillColor=#fff2cc;fillStyle=auto;fontSize=15;strokeColor=#d6b656;fontStyle=1" vertex="1" parent="1">
          <mxGeometry x="1260" y="220" width="40" height="40" as="geometry" />
        </mxCell>
        <mxCell id="XPZotyxkkyArRhtsx3Gz-86" value="" style="endArrow=classic;startArrow=classic;html=1;rounded=0;sketch=1;strokeWidth=2;fontSize=15;entryX=0;entryY=0.5;entryDx=0;entryDy=0;exitX=1;exitY=0.5;exitDx=0;exitDy=0;" edge="1" parent="1" source="XPZotyxkkyArRhtsx3Gz-3" target="XPZotyxkkyArRhtsx3Gz-4">
          <mxGeometry width="50" height="50" relative="1" as="geometry">
            <mxPoint x="150" y="80" as="sourcePoint" />
            <mxPoint x="210" y="30" as="targetPoint" />
          </mxGeometry>
        </mxCell>
      </root>
    </mxGraphModel>
  </diagram>
</mxfile>
